<svg version="1.1" id="Layer_1" xmlns="http://www.w3.org/2000/svg" xmlns:xlink="http://www.w3.org/1999/xlink" x="0px" y="0px"
	 width="100%" viewBox="0 0 500 221" enable-background="new 0 0 500 221" xml:space="preserve">
<path fill="#FEFEFF" opacity="1.000000" stroke="none" 
	d="
M310.000000,222.000000 
	C206.702316,222.000000 103.904640,222.000000 1.053482,222.000000 
	C1.053482,148.394562 1.053482,74.789078 1.053482,1.091794 
	C167.547638,1.091794 334.095367,1.091794 500.821533,1.091794 
	C500.821533,74.666328 500.821533,148.333115 500.821533,222.000000 
	C437.455841,222.000000 373.977905,222.000000 310.000000,222.000000 
M215.784515,82.260223 
	C215.401398,81.162949 215.016144,80.066406 214.635468,78.968285 
	C199.480621,35.251831 157.869110,4.870154 106.693542,11.269168 
	C59.942532,17.114935 24.549858,54.906780 20.199533,101.646004 
	C17.037703,135.616226 28.154646,164.751343 53.459946,188.166595 
	C84.166542,216.579742 133.359924,221.856476 169.359634,200.475998 
	C192.563400,186.695084 207.918625,166.775146 216.466537,141.243637 
	C219.400513,143.929626 222.120102,146.924393 225.358170,149.172348 
	C226.996368,150.309647 230.494431,151.133896 231.497650,150.241119 
	C232.854675,149.033478 233.550934,145.714783 232.906555,143.868683 
	C230.404297,136.699936 227.376358,129.704132 224.318863,122.742867 
	C221.506561,116.339828 219.785599,110.428886 223.519669,103.353897 
	C227.505936,95.801079 230.040451,87.461510 232.917282,79.361862 
	C233.461517,77.829559 233.097412,74.533310 232.361526,74.271141 
	C230.516022,73.613693 227.726700,73.479561 226.197968,74.481415 
	C222.497070,76.906769 219.299011,80.099442 215.784515,82.260223 
M368.016327,109.898521 
	C368.962921,112.748688 370.525604,115.555893 370.727936,118.457962 
	C371.150848,124.523247 370.856049,130.638565 370.856049,136.663483 
	C374.279602,136.663483 377.155151,136.663483 380.059906,136.663483 
	C380.059906,129.329178 380.181946,122.342758 380.033081,115.362114 
	C379.769043,102.981094 373.115509,98.158554 361.305084,102.114555 
	C357.820557,103.281723 355.171265,103.420166 351.682587,101.890663 
	C349.135437,100.773926 345.630157,101.781593 342.558197,101.953041 
	C341.349670,102.020477 340.140533,102.649086 338.962036,102.569984 
	C335.928497,102.366394 332.911926,101.910118 329.675140,101.529716 
	C329.675140,113.774780 329.675140,125.285950 329.675140,136.653290 
	C332.942108,136.653290 335.841888,136.653290 339.100952,136.653290 
	C339.100952,127.711479 339.100952,119.126640 339.100952,110.662491 
	C348.206696,108.109894 349.948242,109.355400 350.010956,118.203583 
	C350.055237,124.449051 350.019531,130.695084 350.019531,136.808533 
	C353.507996,136.808533 356.296387,136.808533 359.320374,136.808533 
	C359.320374,128.020279 359.320374,119.432381 359.320374,110.245064 
	C362.054352,110.007965 364.619965,109.785461 368.016327,109.898521 
M255.834610,93.470413 
	C250.140030,103.414604 252.833130,111.190918 263.488831,115.330475 
	C266.273468,116.412254 269.177094,117.183655 272.000671,118.170258 
	C274.873383,119.174019 277.121124,120.736740 276.521057,124.297417 
	C275.912628,127.907509 273.467163,129.302841 270.081085,129.204880 
	C265.117126,129.061218 260.157654,128.763870 254.687805,128.508255 
	C254.419586,130.800125 254.142654,133.166550 253.689880,137.035614 
	C261.406616,137.035614 268.527466,137.680664 275.470734,136.846863 
	C281.894684,136.075409 285.575653,131.013519 286.082184,124.759239 
	C286.728699,116.776520 284.681671,113.036186 277.729523,110.155861 
	C274.520111,108.826180 271.079468,108.056427 267.863800,106.739494 
	C265.292480,105.686470 261.743927,104.359695 263.192474,100.929024 
	C264.010254,98.992233 267.188995,97.210136 269.499878,96.920822 
	C274.354858,96.312996 279.338928,96.736244 284.676331,96.736244 
	C284.807617,94.869919 284.966217,92.615433 285.129852,90.289413 
	C283.357300,89.859406 281.944611,89.353325 280.493500,89.191605 
	C272.108429,88.257103 263.525940,86.179199 255.834610,93.470413 
M456.066681,94.635582 
	C456.066681,108.706566 456.066681,122.777550 456.066681,136.674530 
	C459.577942,136.674530 462.477814,136.674530 465.658905,136.674530 
	C465.658905,132.028778 465.658905,127.729477 465.658905,123.430176 
	C465.658905,119.147758 465.658905,114.865334 465.658905,110.721031 
	C475.118256,107.904205 477.128357,109.346481 477.237305,118.737053 
	C477.306244,124.678917 477.250153,130.622223 477.250153,136.790268 
	C480.591034,136.790268 483.495392,136.790268 486.856171,136.790268 
	C486.856171,130.671341 486.897247,124.726494 486.848328,118.782372 
	C486.713867,102.449020 481.682343,98.572029 465.522034,102.839447 
	C465.522034,97.815170 465.522034,92.918900 465.522034,87.915771 
	C462.077759,87.915771 459.166595,87.915771 456.065979,87.915771 
	C456.065979,90.034294 456.065979,91.857475 456.066681,94.635582 
M292.052246,132.093079 
	C293.800690,136.092941 297.197968,138.090027 301.208313,137.741669 
	C308.132019,137.140228 314.980011,134.935196 322.257721,138.723358 
	C322.456451,135.681885 322.907043,133.684402 322.646118,131.784637 
	C322.058502,127.506584 320.950958,123.299210 320.381531,119.019623 
	C320.010773,116.233124 320.350067,113.359680 320.131439,110.543808 
	C319.703522,105.033440 316.983276,101.561378 311.556763,101.292389 
	C305.540619,100.994179 299.467987,101.835480 293.111481,102.198189 
	C293.343964,105.277527 293.487854,107.183540 293.620758,108.944199 
	C297.964203,108.944199 301.779419,108.917099 305.594055,108.950905 
	C310.598389,108.995255 311.091339,109.604309 310.458832,114.774895 
	C307.664032,115.093590 304.856598,115.360947 302.064636,115.741661 
	C292.288483,117.074707 289.431305,121.456512 292.052246,132.093079 
M415.507111,137.872513 
	C419.784454,137.119324 417.871582,133.687561 417.756195,131.624725 
	C417.517731,127.361603 416.307404,123.162842 415.777069,118.902718 
	C415.388641,115.782776 415.589203,112.592804 415.271851,109.459923 
	C414.837402,105.170761 412.331329,102.384499 408.157196,101.535690 
	C401.543488,100.190773 395.063904,100.978851 388.558380,103.179184 
	C388.697327,105.435860 388.813232,107.317879 388.913574,108.947174 
	C393.358398,108.947174 397.183807,109.108459 400.989624,108.904251 
	C405.251007,108.675598 406.792572,110.476135 405.874573,114.731110 
	C402.803680,115.087715 399.681030,115.399574 396.573303,115.821167 
	C388.684845,116.891312 385.432037,120.852028 386.380951,128.148499 
	C387.325897,135.414963 392.300018,139.323044 399.835846,137.533432 
	C404.981689,136.311401 409.744049,135.861008 415.507111,137.872513 
M448.968719,107.417603 
	C448.968719,105.790985 448.968719,104.164360 448.968719,102.279182 
	C440.368042,101.293320 431.575531,97.807243 425.520996,106.834419 
	C421.298950,113.129440 422.209503,128.327682 426.524719,133.585464 
	C430.474579,138.398056 440.094025,139.350525 448.619843,135.882309 
	C448.619843,133.553055 448.619843,131.322662 448.619843,129.187820 
	C445.075745,129.187820 441.886383,129.487625 438.793274,129.071732 
	C437.028961,128.834518 434.081238,127.569389 433.972870,126.527260 
	C433.472412,121.714745 432.858978,116.525459 434.262604,112.097847 
	C434.811462,110.366577 440.539368,110.265869 443.914276,109.446632 
	C445.581177,109.042015 447.261383,108.692215 448.968719,107.417603 
z"/>
<path fill="#014FB7" opacity="1.000000" stroke="none" 
	d="
M215.915558,141.081055 
	C207.918625,166.775146 192.563400,186.695084 169.359634,200.475998 
	C133.359924,221.856476 84.166542,216.579742 53.459946,188.166595 
	C28.154646,164.751343 17.037703,135.616226 20.199533,101.646004 
	C24.549858,54.906780 59.942532,17.114935 106.693542,11.269168 
	C157.869110,4.870154 199.480621,35.251831 214.635468,78.968285 
	C215.016144,80.066406 215.401398,81.162949 215.560944,82.792717 
	C211.712631,86.513092 207.856812,89.479576 204.529556,92.952469 
	C201.341568,96.280014 199.103683,96.096123 195.414673,93.272163 
	C175.468445,78.003242 153.519440,68.058327 127.639336,70.088524 
	C117.521362,70.882240 107.775536,73.338898 98.300346,78.136688 
	C104.559181,88.886719 108.290802,99.905106 108.371468,112.048553 
	C108.453323,124.371284 104.223473,135.404190 98.310242,146.269562 
	C136.907532,163.512711 169.606598,151.222580 200.395905,127.479439 
	C205.694183,132.122925 210.804871,136.601990 215.915558,141.081055 
M74.390068,91.895538 
	C68.612289,96.904060 62.753632,101.823441 57.092094,106.960091 
	C54.409454,109.394028 52.924488,112.669289 55.841553,115.736015 
	C65.709717,126.110489 76.729591,135.041534 89.417259,141.696152 
	C102.417747,126.322655 102.444160,97.395607 89.422523,82.065056 
	C84.645103,85.182907 79.813530,88.336098 74.390068,91.895538 
z"/>
<path fill="#E9E4FF" opacity="1.000000" stroke="none" 
	d="
M216.191040,141.162354 
	C210.804871,136.601990 205.694183,132.122925 200.395905,127.479439 
	C169.606598,151.222580 136.907532,163.512711 98.310242,146.269562 
	C104.223473,135.404190 108.453323,124.371284 108.371468,112.048553 
	C108.290802,99.905106 104.559181,88.886719 98.300346,78.136688 
	C107.775536,73.338898 117.521362,70.882240 127.639336,70.088524 
	C153.519440,68.058327 175.468445,78.003242 195.414673,93.272163 
	C199.103683,96.096123 201.341568,96.280014 204.529556,92.952469 
	C207.856812,89.479576 211.712631,86.513092 215.617828,83.154030 
	C219.299011,80.099442 222.497070,76.906769 226.197968,74.481415 
	C227.726700,73.479561 230.516022,73.613693 232.361526,74.271141 
	C233.097412,74.533310 233.461517,77.829559 232.917282,79.361862 
	C230.040451,87.461510 227.505936,95.801079 223.519669,103.353897 
	C219.785599,110.428886 221.506561,116.339828 224.318863,122.742867 
	C227.376358,129.704132 230.404297,136.699936 232.906555,143.868683 
	C233.550934,145.714783 232.854675,149.033478 231.497650,150.241119 
	C230.494431,151.133896 226.996368,150.309647 225.358170,149.172348 
	C222.120102,146.924393 219.400513,143.929626 216.191040,141.162354 
z"/>
<path fill="#080808" opacity="1.000000" stroke="none" 
	d="
M367.600952,109.730743 
	C364.619965,109.785461 362.054352,110.007965 359.320374,110.245064 
	C359.320374,119.432381 359.320374,128.020279 359.320374,136.808533 
	C356.296387,136.808533 353.507996,136.808533 350.019531,136.808533 
	C350.019531,130.695084 350.055237,124.449051 350.010956,118.203583 
	C349.948242,109.355400 348.206696,108.109894 339.100952,110.662491 
	C339.100952,119.126640 339.100952,127.711479 339.100952,136.653290 
	C335.841888,136.653290 332.942108,136.653290 329.675140,136.653290 
	C329.675140,125.285950 329.675140,113.774780 329.675140,101.529716 
	C332.911926,101.910118 335.928497,102.366394 338.962036,102.569984 
	C340.140533,102.649086 341.349670,102.020477 342.558197,101.953041 
	C345.630157,101.781593 349.135437,100.773926 351.682587,101.890663 
	C355.171265,103.420166 357.820557,103.281723 361.305084,102.114555 
	C373.115509,98.158554 379.769043,102.981094 380.033081,115.362114 
	C380.181946,122.342758 380.059906,129.329178 380.059906,136.663483 
	C377.155151,136.663483 374.279602,136.663483 370.856049,136.663483 
	C370.856049,130.638565 371.150848,124.523247 370.727936,118.457962 
	C370.525604,115.555893 368.962921,112.748688 367.600952,109.730743 
z"/>
<path fill="#080808" opacity="1.000000" stroke="none" 
	d="
M256.068024,93.177986 
	C263.525940,86.179199 272.108429,88.257103 280.493500,89.191605 
	C281.944611,89.353325 283.357300,89.859406 285.129852,90.289413 
	C284.966217,92.615433 284.807617,94.869919 284.676331,96.736244 
	C279.338928,96.736244 274.354858,96.312996 269.499878,96.920822 
	C267.188995,97.210136 264.010254,98.992233 263.192474,100.929024 
	C261.743927,104.359695 265.292480,105.686470 267.863800,106.739494 
	C271.079468,108.056427 274.520111,108.826180 277.729523,110.155861 
	C284.681671,113.036186 286.728699,116.776520 286.082184,124.759239 
	C285.575653,131.013519 281.894684,136.075409 275.470734,136.846863 
	C268.527466,137.680664 261.406616,137.035614 253.689880,137.035614 
	C254.142654,133.166550 254.419586,130.800125 254.687805,128.508255 
	C260.157654,128.763870 265.117126,129.061218 270.081085,129.204880 
	C273.467163,129.302841 275.912628,127.907509 276.521057,124.297417 
	C277.121124,120.736740 274.873383,119.174019 272.000671,118.170258 
	C269.177094,117.183655 266.273468,116.412254 263.488831,115.330475 
	C252.833130,111.190918 250.140030,103.414604 256.068024,93.177986 
z"/>
<path fill="#0D0D0D" opacity="1.000000" stroke="none" 
	d="
M456.066345,94.158119 
	C456.065979,91.857475 456.065979,90.034294 456.065979,87.915771 
	C459.166595,87.915771 462.077759,87.915771 465.522034,87.915771 
	C465.522034,92.918900 465.522034,97.815170 465.522034,102.839447 
	C481.682343,98.572029 486.713867,102.449020 486.848328,118.782372 
	C486.897247,124.726494 486.856171,130.671341 486.856171,136.790268 
	C483.495392,136.790268 480.591034,136.790268 477.250153,136.790268 
	C477.250153,130.622223 477.306244,124.678917 477.237305,118.737053 
	C477.128357,109.346481 475.118256,107.904205 465.658905,110.721031 
	C465.658905,114.865334 465.658905,119.147758 465.658905,123.430176 
	C465.658905,127.729477 465.658905,132.028778 465.658905,136.674530 
	C462.477814,136.674530 459.577942,136.674530 456.066681,136.674530 
	C456.066681,122.777550 456.066681,108.706566 456.066345,94.158119 
z"/>
<path fill="#070707" opacity="1.000000" stroke="none" 
	d="
M291.954224,131.707611 
	C289.431305,121.456512 292.288483,117.074707 302.064636,115.741661 
	C304.856598,115.360947 307.664032,115.093590 310.458832,114.774895 
	C311.091339,109.604309 310.598389,108.995255 305.594055,108.950905 
	C301.779419,108.917099 297.964203,108.944199 293.620758,108.944199 
	C293.487854,107.183540 293.343964,105.277527 293.111481,102.198189 
	C299.467987,101.835480 305.540619,100.994179 311.556763,101.292389 
	C316.983276,101.561378 319.703522,105.033440 320.131439,110.543808 
	C320.350067,113.359680 320.010773,116.233124 320.381531,119.019623 
	C320.950958,123.299210 322.058502,127.506584 322.646118,131.784637 
	C322.907043,133.684402 322.456451,135.681885 322.257721,138.723358 
	C314.980011,134.935196 308.132019,137.140228 301.208313,137.741669 
	C297.197968,138.090027 293.800690,136.092941 291.954224,131.707611 
M310.477875,121.706123 
	C308.324036,121.829262 305.886932,121.375740 304.103088,122.252045 
	C302.587097,122.996780 301.203796,125.196251 300.986298,126.907677 
	C300.874969,127.783638 303.336060,129.645004 304.833588,129.902313 
	C306.759125,130.233170 308.884583,129.400528 310.952423,129.064438 
	C310.952423,126.483383 310.952423,124.498367 310.477875,121.706123 
z"/>
<path fill="#090909" opacity="1.000000" stroke="none" 
	d="
M415.080536,137.848022 
	C409.744049,135.861008 404.981689,136.311401 399.835846,137.533432 
	C392.300018,139.323044 387.325897,135.414963 386.380951,128.148499 
	C385.432037,120.852028 388.684845,116.891312 396.573303,115.821167 
	C399.681030,115.399574 402.803680,115.087715 405.874573,114.731110 
	C406.792572,110.476135 405.251007,108.675598 400.989624,108.904251 
	C397.183807,109.108459 393.358398,108.947174 388.913574,108.947174 
	C388.813232,107.317879 388.697327,105.435860 388.558380,103.179184 
	C395.063904,100.978851 401.543488,100.190773 408.157196,101.535690 
	C412.331329,102.384499 414.837402,105.170761 415.271851,109.459923 
	C415.589203,112.592804 415.388641,115.782776 415.777069,118.902718 
	C416.307404,123.162842 417.517731,127.361603 417.756195,131.624725 
	C417.871582,133.687561 419.784454,137.119324 415.080536,137.848022 
M400.573975,130.044983 
	C402.327057,129.747086 404.080109,129.449173 405.786011,129.159302 
	C405.786011,126.429031 405.786011,124.062729 405.786011,121.618591 
	C403.621063,121.762222 401.583191,121.404686 400.064941,122.131943 
	C398.433899,122.913216 396.446564,124.584984 396.214722,126.111214 
	C396.044037,127.234825 398.446747,128.749329 400.573975,130.044983 
z"/>
<path fill="#090909" opacity="1.000000" stroke="none" 
	d="
M448.952148,107.867607 
	C447.261383,108.692215 445.581177,109.042015 443.914276,109.446632 
	C440.539368,110.265869 434.811462,110.366577 434.262604,112.097847 
	C432.858978,116.525459 433.472412,121.714745 433.972870,126.527260 
	C434.081238,127.569389 437.028961,128.834518 438.793274,129.071732 
	C441.886383,129.487625 445.075745,129.187820 448.619843,129.187820 
	C448.619843,131.322662 448.619843,133.553055 448.619843,135.882309 
	C440.094025,139.350525 430.474579,138.398056 426.524719,133.585464 
	C422.209503,128.327682 421.298950,113.129440 425.520996,106.834419 
	C431.575531,97.807243 440.368042,101.293320 448.968719,102.279182 
	C448.968719,104.164360 448.968719,105.790985 448.952148,107.867607 
z"/>
<path fill="#E7E3FE" opacity="1.000000" stroke="none" 
	d="
M74.686012,91.692413 
	C79.813530,88.336098 84.645103,85.182907 89.422523,82.065056 
	C102.444160,97.395607 102.417747,126.322655 89.417259,141.696152 
	C76.729591,135.041534 65.709717,126.110489 55.841553,115.736015 
	C52.924488,112.669289 54.409454,109.394028 57.092094,106.960091 
	C62.753632,101.823441 68.612289,96.904060 74.686012,91.692413 
M82.634071,115.854675 
	C85.515572,117.037102 88.197983,116.752182 88.956528,113.449684 
	C89.310287,111.909492 88.413048,109.238556 87.188438,108.422768 
	C86.025665,107.648178 83.216125,108.007874 81.982559,108.965775 
	C79.670746,110.761002 79.974251,113.292946 82.634071,115.854675 
z"/>
<path fill="#FBFBFB" opacity="1.000000" stroke="none" 
	d="
M310.715149,122.109734 
	C310.952423,124.498367 310.952423,126.483383 310.952423,129.064438 
	C308.884583,129.400528 306.759125,130.233170 304.833588,129.902313 
	C303.336060,129.645004 300.874969,127.783638 300.986298,126.907677 
	C301.203796,125.196251 302.587097,122.996780 304.103088,122.252045 
	C305.886932,121.375740 308.324036,121.829262 310.715149,122.109734 
z"/>
<path fill="#F9F9F9" opacity="1.000000" stroke="none" 
	d="
M400.138367,130.067322 
	C398.446747,128.749329 396.044037,127.234825 396.214722,126.111214 
	C396.446564,124.584984 398.433899,122.913216 400.064941,122.131943 
	C401.583191,121.404686 403.621063,121.762222 405.786011,121.618591 
	C405.786011,124.062729 405.786011,126.429031 405.786011,129.159302 
	C404.080109,129.449173 402.327057,129.747086 400.138367,130.067322 
z"/>
<path fill="#0F58BD" opacity="1.000000" stroke="none" 
	d="
M82.348572,115.646561 
	C79.974251,113.292946 79.670746,110.761002 81.982559,108.965775 
	C83.216125,108.007874 86.025665,107.648178 87.188438,108.422768 
	C88.413048,109.238556 89.310287,111.909492 88.956528,113.449684 
	C88.197983,116.752182 85.515572,117.037102 82.348572,115.646561 
z"/>
</svg>